<svg width="359" height="100" viewBox="0 0 359 100" fill="none" xmlns="http://www.w3.org/2000/svg">
<path d="M25.2593 0H332.824C339.523 0 345.949 2.62834 350.685 7.3045C355.421 11.9807 358.083 18.3252 358.083 24.9395V74.8186C358.083 81.4374 355.421 87.7774 350.685 92.4582C345.949 97.1343 339.523 99.7627 332.824 99.7627H25.2593C11.3102 99.7627 0 88.5956 0 74.8186V24.9395C0 11.167 11.3102 0 25.2593 0Z" fill="#222222"/>
<path d="M52.6873 57.7604C52.8354 59.7122 52.2475 61.4858 50.928 63.0811C49.6178 64.681 47.8447 65.9426 45.6132 66.8659C43.391 67.7801 40.9651 68.2372 38.3354 68.2372C35.766 68.2372 33.4002 67.8167 31.2428 66.9756C29.0947 66.1254 27.3586 64.9644 26.0391 63.5016C24.7289 62.0298 24.0762 60.3659 24.0762 58.5101C24.0762 56.9148 24.6549 55.5572 25.8169 54.4327C26.9882 53.3128 28.3586 52.7506 29.928 52.7506C31.5438 52.7506 32.9327 53.3128 34.0947 54.4327C35.2521 55.5572 35.8354 56.9148 35.8354 58.5101C35.8354 59.8631 35.5438 60.9007 34.9651 61.6184C34.3817 62.3406 33.7891 62.9348 33.1873 63.4102C32.5808 63.8856 32.2799 64.4478 32.2799 65.0923C32.2799 65.6546 32.5577 66.1848 33.1132 66.6831C33.6688 67.1722 34.3215 67.4693 35.0762 67.579C35.5808 67.6293 36.0623 67.6795 36.5206 67.7253C36.9743 67.7755 37.5808 67.7984 38.3354 67.7984C39.7058 67.7984 40.8725 67.323 41.8354 66.3722C42.7984 65.4215 43.2799 64.2787 43.2799 62.9348C43.2799 61.6824 42.8077 60.4665 41.8725 59.2963C40.9327 58.1261 39.7428 56.9559 38.2984 55.7857C36.8632 54.6064 35.3215 53.3905 33.6688 52.1472C32.0252 50.8947 30.4836 49.6057 29.0391 48.2892C27.604 46.9636 26.4188 45.5375 25.4836 44.0108C24.5438 42.4886 24.0762 40.8568 24.0762 39.1106C24.0762 37.1131 24.7614 35.4675 26.1317 34.1739C27.5021 32.8712 29.1688 31.9067 31.1317 31.285C33.1039 30.6634 35.0299 30.3525 36.9095 30.3525C38.7243 30.3525 40.2475 30.5308 41.4836 30.8828C42.7289 31.2256 43.8401 31.5501 44.8169 31.8518C45.803 32.1444 46.8354 32.2678 47.9095 32.2175C48.303 32.1718 48.6688 32.0712 49.0021 31.925C49.3354 31.7787 49.5993 31.605 49.7984 31.3947H50.1688V43.5354C50.1688 43.5354 50.1317 43.5354 50.0577 43.5354C49.9836 43.5354 49.8956 43.5354 49.7984 43.5354C49.4882 42.0361 48.9836 40.3677 48.2799 38.5255C47.5762 36.6743 46.5252 35.0241 45.1317 33.5705C43.7336 32.1215 41.803 31.2485 39.3354 30.9559C38.0114 30.7502 36.8725 31.0016 35.9095 31.7056C34.9558 32.4004 34.428 33.5477 34.3169 35.143C34.2151 36.7428 34.7336 38.2147 35.8725 39.5677C37.0067 40.9116 38.4558 42.2464 40.2243 43.5719C42.0021 44.8884 43.8077 46.2506 45.6502 47.6493C47.5021 49.0526 49.0808 50.5748 50.391 52.2203C51.7104 53.8659 52.4743 55.7126 52.6873 57.7604Z" fill="#FFED00"/>
<path d="M81.1252 62.2582C81.1252 63.1632 81.4261 63.9586 82.0326 64.6534C82.6344 65.3482 83.3705 65.7779 84.2363 65.9333V66.3721L71.1807 68.2371C71.1807 68.2371 71.1668 68.2371 71.1437 68.2371C71.1159 68.2371 71.0789 68.2371 71.0326 68.2371C70.6715 68.2371 70.352 68.0999 70.0696 67.8348C69.7965 67.556 69.6622 67.2452 69.6622 66.9023V65.0191C68.7594 65.6773 67.5372 66.3812 65.9955 67.1217C64.4492 67.8668 62.6159 68.2371 60.4955 68.2371C58.1113 68.2371 55.9585 67.6154 54.0326 66.3721C52.1159 65.1288 50.8844 63.4604 50.3289 61.3623C49.7224 59.2184 49.9492 57.1203 51.014 55.0725C52.0742 53.0247 53.6437 51.3746 55.7178 50.1175C57.0233 49.3267 58.69 48.5725 60.7178 47.8503C62.7409 47.1189 64.8659 46.3967 67.0881 45.6745C69.3103 44.9431 71.3937 44.1935 73.3474 43.4255C75.2965 42.6485 76.889 41.7983 78.1252 40.8841C79.3566 39.9607 79.977 38.9185 79.977 37.7575C79.977 36.761 79.5326 35.7645 78.6437 34.7772C77.764 33.7807 76.7224 32.9762 75.514 32.3637C74.0418 31.6689 72.4215 31.2026 70.6437 30.9558C68.8752 30.6998 67.0603 30.7272 65.1992 31.0289C62.3103 31.4312 60.8659 32.3774 60.8659 33.863C60.8659 34.768 61.1437 35.5451 61.6992 36.2033C62.2548 36.8524 62.7965 37.5335 63.3289 38.2511C63.8566 38.9734 64.1252 39.9104 64.1252 41.0669C64.1252 42.6668 63.5418 44.0243 62.3844 45.1442C61.2224 46.2687 59.8335 46.8264 58.2178 46.8264C56.5974 46.8264 55.2178 46.2687 54.0696 45.1442C52.9307 44.0243 52.3659 42.6668 52.3659 41.0669C52.3659 39.1196 53.0511 37.4055 54.4215 35.9291C55.7918 34.4572 57.4678 33.2596 59.4585 32.3454C61.4585 31.422 63.3474 30.8278 65.1252 30.5718C69.1622 29.9776 72.6992 30.453 75.7363 31.998C77.2039 32.6928 78.4678 33.6801 79.5326 34.96C80.5928 36.2307 81.1252 37.7895 81.1252 39.6407V62.2582ZM69.6622 64.5071V45.254C68.6483 45.7065 67.5233 46.3236 66.2918 47.1006C65.0557 47.8686 63.9816 48.9199 63.0696 50.2455C62.1529 51.562 61.6252 53.2715 61.477 55.3651C61.3752 57.1569 61.5233 58.7431 61.9215 60.1189C62.3289 61.4994 62.94 62.6056 63.7548 63.4466C64.6066 64.3517 65.5974 64.9048 66.7363 65.1105C67.8844 65.3071 68.8566 65.1059 69.6622 64.5071Z" fill="#FFED00"/>
<path d="M94.3984 16.8037V63.7573C94.3984 64.6486 94.6994 65.4486 95.3058 66.1525C95.9077 66.8473 96.6438 67.2678 97.5095 67.4141V67.8712H79.8984V67.4141C80.7595 67.2678 81.4957 66.8473 82.1021 66.1525C82.704 65.4486 83.0095 64.6486 83.0095 63.7573V21.4296C83.0095 20.5428 82.704 19.7474 82.1021 19.0527C81.4957 18.3487 80.7595 17.919 79.8984 17.7728V17.3157L92.8799 15.4507C92.9262 15.4507 92.9633 15.4507 92.991 15.4507C93.0142 15.4507 93.0512 15.4507 93.1021 15.4507C93.9633 15.4507 94.3984 15.9032 94.3984 16.8037Z" fill="#FFED00"/>
<path d="M125.116 62.2582C125.116 63.1632 125.417 63.9586 126.023 64.6534C126.625 65.3482 127.361 65.7779 128.227 65.9333V66.3721L115.171 68.2371C115.171 68.2371 115.157 68.2371 115.134 68.2371C115.106 68.2371 115.069 68.2371 115.023 68.2371C114.662 68.2371 114.342 68.0999 114.06 67.8348C113.787 67.556 113.653 67.2452 113.653 66.9023V65.0191C112.75 65.6773 111.528 66.3812 109.986 67.1217C108.44 67.8668 106.606 68.2371 104.486 68.2371C102.102 68.2371 99.949 67.6154 98.023 66.3721C96.1064 65.1288 94.8749 63.4604 94.3193 61.3623C93.7129 59.2184 93.9397 57.1203 95.0045 55.0725C96.0647 53.0247 97.6342 51.3746 99.7082 50.1175C101.014 49.3267 102.68 48.5725 104.708 47.8503C106.731 47.1189 108.856 46.3967 111.079 45.6745C113.301 44.9431 115.384 44.1935 117.338 43.4255C119.287 42.6485 120.88 41.7983 122.116 40.8841C123.347 39.9607 123.967 38.9185 123.967 37.7575C123.967 36.761 123.523 35.7645 122.634 34.7772C121.755 33.7807 120.713 32.9762 119.505 32.3637C118.032 31.6689 116.412 31.2026 114.634 30.9558C112.866 30.6998 111.051 30.7272 109.19 31.0289C106.301 31.4312 104.856 32.3774 104.856 33.863C104.856 34.768 105.134 35.5451 105.69 36.2033C106.245 36.8524 106.787 37.5335 107.319 38.2511C107.847 38.9734 108.116 39.9104 108.116 41.0669C108.116 42.6668 107.532 44.0243 106.375 45.1442C105.213 46.2687 103.824 46.8264 102.208 46.8264C100.588 46.8264 99.2082 46.2687 98.0601 45.1442C96.9212 44.0243 96.3564 42.6668 96.3564 41.0669C96.3564 39.1196 97.0416 37.4055 98.4119 35.9291C99.7823 34.4572 101.458 33.2596 103.449 32.3454C105.449 31.422 107.338 30.8278 109.116 30.5718C113.153 29.9776 116.69 30.453 119.727 31.998C121.194 32.6928 122.458 33.6801 123.523 34.96C124.583 36.2307 125.116 37.7895 125.116 39.6407V62.2582ZM113.653 64.5071V45.254C112.639 45.7065 111.514 46.3236 110.282 47.1006C109.046 47.8686 107.972 48.9199 107.06 50.2455C106.143 51.562 105.616 53.2715 105.467 55.3651C105.366 57.1569 105.514 58.7431 105.912 60.1189C106.319 61.4994 106.93 62.6056 107.745 63.4466C108.597 64.3517 109.588 64.9048 110.727 65.1105C111.875 65.3071 112.847 65.1059 113.653 64.5071Z" fill="#FFED00"/>
<path d="M178.278 63.7575C178.278 64.6489 178.579 65.4488 179.185 66.1527C179.801 66.8475 180.537 67.2681 181.389 67.4143V67.8714H163.797V67.4143C164.658 67.2681 165.394 66.8475 166 66.1527C166.602 65.4488 166.908 64.6489 166.908 63.7575V41.652C166.908 40.363 167.232 39.3437 167.889 38.5986C168.542 37.8444 169.195 37.1313 169.852 36.4593C170.519 35.7783 170.852 34.992 170.852 34.1007C170.852 33.2505 170.357 32.5968 169.371 32.1443C168.38 31.6963 167.153 31.4678 165.685 31.4678C163.51 31.4678 161.579 31.8335 159.889 32.5648C158.195 33.2871 157.121 33.8219 156.667 34.1738C157.778 35.7234 158.334 37.8672 158.334 40.6098V63.7575C158.334 64.6489 158.635 65.4488 159.241 66.1527C159.843 66.8475 160.579 67.2681 161.445 67.4143V67.8714H143.852V67.4143C144.704 67.2681 145.431 66.8475 146.037 66.1527C146.653 65.4488 146.963 64.6489 146.963 63.7575V41.652C146.963 40.363 147.287 39.3437 147.945 38.5986C148.597 37.8444 149.25 37.1313 149.908 36.4593C150.574 35.7783 150.908 34.992 150.908 34.1007C150.908 33.2505 150.426 32.5968 149.463 32.1443C148.5 31.6963 147.26 31.4678 145.741 31.4678C143.417 31.4678 140.968 32.0483 138.389 33.2048V63.7575C138.389 64.6489 138.69 65.4488 139.297 66.1527C139.898 66.8475 140.635 67.2681 141.5 67.4143V67.8714H123.889V67.4143C124.75 67.2681 125.486 66.8475 126.093 66.1527C126.695 65.4488 127 64.6489 127 63.7575V37.0993C127 36.1485 126.695 35.3394 126.093 34.6675C125.486 33.9864 124.75 33.5705 123.889 33.4242V32.9671L136.871 31.1021C136.917 31.1021 136.954 31.1021 136.982 31.1021C137.005 31.1021 137.042 31.1021 137.093 31.1021C137.954 31.1021 138.389 31.5226 138.389 32.3637V32.6745C139.695 32.03 141.185 31.4952 142.852 31.0655C144.528 30.6404 146.227 30.4027 147.945 30.3525C149.658 30.3067 151.264 30.5444 152.76 31.0655C154.25 31.5912 155.482 32.5008 156.445 33.7899C158.26 32.5968 160.227 31.7238 162.352 31.1752C164.472 30.6267 166.371 30.3525 168.037 30.3525C169.861 30.3525 171.547 30.677 173.093 31.3215C174.635 31.9706 175.88 33.0311 176.834 34.5029C177.797 35.9794 178.278 38.0135 178.278 40.6098V63.7575Z" fill="#FFED00"/>
<path d="M209.002 62.2582C209.002 63.1632 209.303 63.9586 209.91 64.6534C210.511 65.3482 211.247 65.7779 212.113 65.9333V66.3721L199.058 68.2371C199.058 68.2371 199.044 68.2371 199.021 68.2371C198.993 68.2371 198.956 68.2371 198.91 68.2371C198.548 68.2371 198.229 68.0999 197.947 67.8348C197.673 67.556 197.539 67.2452 197.539 66.9023V65.0191C196.636 65.6773 195.414 66.3812 193.872 67.1217C192.326 67.8668 190.493 68.2371 188.372 68.2371C185.988 68.2371 183.835 67.6154 181.91 66.3721C179.993 65.1288 178.761 63.4604 178.206 61.3623C177.599 59.2184 177.826 57.1203 178.891 55.0725C179.951 53.0247 181.521 51.3746 183.595 50.1175C184.9 49.3267 186.567 48.5725 188.595 47.8503C190.618 47.1189 192.743 46.3967 194.965 45.6745C197.187 44.9431 199.271 44.1935 201.224 43.4255C203.173 42.6485 204.766 41.7983 206.002 40.8841C207.234 39.9607 207.854 38.9185 207.854 37.7575C207.854 36.761 207.41 35.7645 206.521 34.7772C205.641 33.7807 204.599 32.9762 203.391 32.3637C201.919 31.6689 200.298 31.2026 198.521 30.9558C196.752 30.6998 194.937 30.7272 193.076 31.0289C190.187 31.4312 188.743 32.3774 188.743 33.863C188.743 34.768 189.021 35.5451 189.576 36.2033C190.132 36.8524 190.673 37.5335 191.206 38.2511C191.734 38.9734 192.002 39.9104 192.002 41.0669C192.002 42.6668 191.419 44.0243 190.261 45.1442C189.099 46.2687 187.71 46.8264 186.095 46.8264C184.474 46.8264 183.095 46.2687 181.947 45.1442C180.808 44.0243 180.243 42.6668 180.243 41.0669C180.243 39.1196 180.928 37.4055 182.298 35.9291C183.669 34.4572 185.345 33.2596 187.335 32.3454C189.335 31.422 191.224 30.8278 193.002 30.5718C197.039 29.9776 200.576 30.453 203.613 31.998C205.081 32.6928 206.345 33.6801 207.41 34.96C208.47 36.2307 209.002 37.7895 209.002 39.6407V62.2582ZM197.539 64.5071V45.254C196.525 45.7065 195.4 46.3236 194.169 47.1006C192.933 47.8686 191.859 48.9199 190.947 50.2455C190.03 51.562 189.502 53.2715 189.354 55.3651C189.252 57.1569 189.4 58.7431 189.798 60.1189C190.206 61.4994 190.817 62.6056 191.632 63.4466C192.484 64.3517 193.474 64.9048 194.613 65.1105C195.761 65.3071 196.734 65.1059 197.539 64.5071Z" fill="#FFED00"/>
<path d="M242.22 63.7576C242.22 64.649 242.521 65.4489 243.127 66.1528C243.729 66.8476 244.465 67.2682 245.331 67.4144V67.8715H227.738V67.4144C228.59 67.2682 229.317 66.8476 229.924 66.1528C230.539 65.4489 230.849 64.649 230.849 63.7576V41.6521C230.849 40.3631 231.174 39.3437 231.831 38.5987C232.484 37.8445 233.137 37.1314 233.794 36.4594C234.461 35.7783 234.794 34.9921 234.794 34.1008C234.794 33.2506 234.312 32.5969 233.349 32.1444C232.387 31.6964 231.146 31.4679 229.627 31.4679C227.961 31.4679 226.465 31.6827 225.146 32.1078C223.836 32.5375 222.877 32.9032 222.275 33.2049V63.7576C222.275 64.649 222.576 65.4489 223.183 66.1528C223.785 66.8476 224.521 67.2682 225.387 67.4144V67.8715H207.775V67.4144C208.637 67.2682 209.373 66.8476 209.979 66.1528C210.581 65.4489 210.887 64.649 210.887 63.7576V37.0994C210.887 36.1486 210.581 35.3395 209.979 34.6676C209.373 33.9865 208.637 33.5705 207.775 33.4243V32.9672L220.757 31.1022C220.803 31.1022 220.84 31.1022 220.868 31.1022C220.891 31.1022 220.928 31.1022 220.979 31.1022C221.84 31.1022 222.275 31.5227 222.275 32.3638V32.6746C223.683 31.9798 225.257 31.4222 226.998 30.9925C228.748 30.5674 230.507 30.3525 232.275 30.3525C234.053 30.3525 235.701 30.6908 237.22 31.3582C238.738 32.0301 239.947 33.1043 240.849 34.5762C241.762 36.0526 242.22 38.0639 242.22 40.6099V63.7576Z" fill="#FFED00"/>
<path d="M276.052 62.258C276.052 63.1631 276.353 63.9584 276.959 64.6532C277.561 65.348 278.297 65.7777 279.163 65.9331V66.3719L266.181 68.2369C266.13 68.2369 266.093 68.2369 266.07 68.2369C266.042 68.2369 266.005 68.2369 265.959 68.2369C265.598 68.2369 265.292 68.0998 265.033 67.8347C264.783 67.5558 264.663 67.245 264.663 66.9022V65.092C263.255 66.2028 261.723 67.0439 260.07 67.6152C258.427 68.1866 256.723 68.3695 254.959 68.1638C252.427 67.9169 250.163 66.9662 248.163 65.2932C246.172 63.611 244.607 61.4626 243.459 58.8389C242.32 56.2197 241.755 53.3628 241.755 50.2636C241.755 47.329 242.223 44.6321 243.163 42.1821C244.098 39.732 245.353 37.6247 246.922 35.8557C248.487 34.0913 250.228 32.7292 252.144 31.7784C254.07 30.8276 256.019 30.3522 257.996 30.3522C259.302 30.3522 260.552 30.5168 261.737 30.8459C262.931 31.1659 263.908 31.5224 264.663 31.9247V21.4296C264.663 20.5428 264.357 19.7474 263.755 19.0527C263.149 18.3487 262.413 17.919 261.552 17.7728V17.3157L274.533 15.4507C274.579 15.4507 274.616 15.4507 274.644 15.4507C274.667 15.4507 274.704 15.4507 274.755 15.4507C275.616 15.4507 276.052 15.9032 276.052 16.8037V62.258ZM262.163 65.092C262.927 65.092 263.76 64.9001 264.663 64.5069V32.4549C263.76 32.0527 262.927 31.8515 262.163 31.8515C260.496 31.8515 258.978 32.6012 257.607 34.1005C256.246 35.5998 255.149 37.6019 254.311 40.0977C253.482 42.5843 253.07 45.3772 253.07 48.4718C253.07 51.5207 253.482 54.3044 254.311 56.8276C255.149 59.3508 256.246 61.3621 257.607 62.8614C258.978 64.3515 260.496 65.092 262.163 65.092Z" fill="#FFED00"/>
<path d="M299.324 63.0811C300.791 63.0811 302.194 62.7337 303.527 62.0389C304.87 61.335 306.074 60.3568 307.139 59.1134L307.527 59.3328C306.009 62.0298 303.958 64.1873 301.379 65.8054C298.796 67.4281 295.963 68.2372 292.879 68.2372C289.694 68.2372 286.796 67.3916 284.194 65.6957C281.588 64.0044 279.5 61.7235 277.935 58.8575C276.365 55.9823 275.583 52.7963 275.583 49.2949C275.583 45.798 276.365 42.6166 277.935 39.7506C279.5 36.8754 281.588 34.5899 284.194 32.894C286.796 31.2027 289.694 30.3525 292.879 30.3525C295.666 30.3525 298.162 31.0062 300.361 32.3089C302.555 33.6025 304.402 35.3578 305.898 37.5748C307.389 39.7963 308.416 42.3286 308.972 45.1809H286.972C286.972 48.4721 287.527 51.4844 288.639 54.2133C289.75 56.9331 291.236 59.0906 293.102 60.6859C294.977 62.2857 297.051 63.0811 299.324 63.0811ZM292.879 30.7914C291.814 30.7914 290.944 31.1845 290.268 31.9615C289.588 32.7295 289.018 33.7305 288.564 34.9601C288.106 36.1806 287.773 37.4422 287.564 38.7449C287.365 40.0385 287.217 41.2316 287.12 42.3286C287.018 43.4257 286.972 44.2256 286.972 44.7238H298.657C298.199 35.4355 296.273 30.7914 292.879 30.7914Z" fill="#FFED00"/>
<path d="M328.835 29.6027C330.451 29.653 331.84 30.2243 333.002 31.3214C334.173 32.4184 334.761 33.7669 334.761 35.3622C334.761 36.962 334.173 38.3379 333.002 39.4944C331.84 40.6417 330.451 41.2131 328.835 41.2131C327.266 41.2131 325.9 40.6417 324.742 39.4944C323.58 38.3379 323.002 36.962 323.002 35.3622C323.002 34.8639 323.039 34.4937 323.113 34.2468C323.187 33.9909 323.224 33.7166 323.224 33.4241C323.224 32.6698 322.817 32.2904 322.002 32.2904C321.298 32.2904 320.34 32.5967 319.131 33.2047V63.7574C319.131 64.6487 319.432 65.4487 320.039 66.1526C320.641 66.8474 321.377 67.2679 322.242 67.4142V67.8713H304.631V67.4142C305.492 67.2679 306.229 66.8474 306.835 66.1526C307.437 65.4487 307.742 64.6487 307.742 63.7574V37.0992C307.742 36.1484 307.437 35.3393 306.835 34.6674C306.229 33.9863 305.492 33.5703 304.631 33.4241V32.967L317.613 31.102C317.659 31.102 317.696 31.102 317.724 31.102C317.747 31.102 317.784 31.102 317.835 31.102C318.242 31.102 318.557 31.23 318.779 31.4859C319.011 31.7328 319.131 32.0253 319.131 32.3636V32.7475C320.488 32.0528 322.076 31.3351 323.891 30.59C325.715 29.8358 327.363 29.5067 328.835 29.6027Z" fill="#FFED00"/>
<path d="M302.006 73.8607C301.992 73.4859 301.849 73.1842 301.58 72.9648C301.307 72.7454 300.951 72.6357 300.506 72.6357C300.048 72.6357 299.696 72.7271 299.451 72.91C299.215 73.0928 299.099 73.3579 299.099 73.6962C299.099 73.879 299.145 74.039 299.247 74.1716C299.358 74.295 299.548 74.3864 299.821 74.4458L301.58 74.8481C302.048 74.9487 302.395 75.1406 302.617 75.4332C302.84 75.7166 302.951 76.0548 302.951 76.4571C302.951 77.0559 302.729 77.513 302.284 77.8284C301.849 78.1301 301.275 78.2855 300.562 78.2855C300.029 78.2855 299.604 78.2169 299.284 78.0844C298.974 77.9381 298.696 77.7187 298.451 77.4262C298.215 77.1245 298.099 76.7085 298.099 76.1828H298.877C298.877 76.6216 299.025 76.969 299.321 77.225C299.627 77.4719 300.043 77.5907 300.562 77.5907C301.066 77.5907 301.455 77.5084 301.729 77.3347C302.011 77.1519 302.154 76.8959 302.154 76.5668C302.154 76.2743 302.066 76.0548 301.895 75.9086C301.733 75.7623 301.414 75.6343 300.932 75.5246L299.617 75.2138C299.173 75.1178 298.84 74.9487 298.617 74.7018C298.404 74.4596 298.303 74.1624 298.303 73.8059C298.303 73.2574 298.488 72.814 298.858 72.4712C299.229 72.1192 299.747 71.9409 300.414 71.9409C301.154 71.9409 301.729 72.0963 302.136 72.398C302.543 72.7043 302.756 73.1934 302.784 73.8607H302.006Z" fill="#FFED00"/>
<path d="M304.64 78.1209H303.807V72.1055H304.64V78.1209Z" fill="#FFED00"/>
<path d="M309.804 72.1055H310.6V78.1209H309.693L306.582 73.2574H306.563V78.1209H305.767V72.1055H306.73L309.786 76.969H309.804V72.1055Z" fill="#FFED00"/>
<path d="M315.986 73.9156C315.898 73.5042 315.708 73.1934 315.412 72.9831C315.125 72.7637 314.75 72.654 314.282 72.654C313.676 72.654 313.189 72.8734 312.819 73.3122C312.458 73.7419 312.282 74.3179 312.282 75.0492C312.282 75.8903 312.453 76.5211 312.801 76.9325C313.143 77.3484 313.643 77.5541 314.301 77.5541C314.731 77.5541 315.101 77.417 315.412 77.1336C315.731 76.8548 315.939 76.4479 316.041 75.9086H316.856C316.745 76.6765 316.439 77.2707 315.949 77.6821C315.467 78.0844 314.879 78.2855 314.189 78.2855C313.347 78.2855 312.676 78.0067 312.171 77.4444C311.676 76.8731 311.43 76.0823 311.43 75.0675C311.43 74.1076 311.689 73.3442 312.208 72.782C312.736 72.2243 313.43 71.9409 314.282 71.9409C314.986 71.9409 315.56 72.1238 316.004 72.4894C316.449 72.846 316.708 73.3214 316.782 73.9156H315.986Z" fill="#FFED00"/>
<path d="M322.156 78.1209H317.656V72.1055H322.101V72.8185H318.49V74.6652H321.823V75.3783H318.49V77.4079H322.156V78.1209Z" fill="#FFED00"/>
<path d="M324.475 74.3363C324.475 73.6415 324.651 73.1204 325.012 72.7639C325.383 72.3982 325.892 72.2153 326.549 72.2153C327.091 72.2153 327.535 72.3799 327.883 72.709C328.239 73.0381 328.42 73.4678 328.42 73.9889C328.42 74.3911 328.313 74.734 328.105 75.0128C327.906 75.2825 327.614 75.5248 327.235 75.7442L326.198 76.2927C325.591 76.6218 325.244 77.0012 325.16 77.4263H328.42V78.1211H324.327C324.35 77.5726 324.475 77.1155 324.698 76.7498C324.92 76.375 325.262 76.0504 325.735 75.7807L326.79 75.1591C327.086 75.0037 327.295 74.8391 327.42 74.6654C327.554 74.4963 327.623 74.2586 327.623 73.9523C327.623 73.6506 327.512 73.3992 327.29 73.2027C327.077 72.997 326.795 72.8918 326.438 72.8918C326.031 72.8918 325.725 73.0198 325.531 73.2758C325.332 73.5318 325.235 73.8883 325.235 74.3363H324.475Z" fill="#FFED00"/>
<path d="M332.209 75.2505C332.209 74.4597 332.103 73.87 331.895 73.4769C331.682 73.0884 331.376 72.8918 330.969 72.8918C330.561 72.8918 330.246 73.0884 330.024 73.4769C329.811 73.87 329.709 74.4597 329.709 75.2505C329.709 76.0184 329.811 76.6035 330.024 77.0058C330.246 77.408 330.561 77.6091 330.969 77.6091C331.376 77.6091 331.682 77.4172 331.895 77.0241C332.103 76.6355 332.209 76.0459 332.209 75.2505ZM333.006 75.2505C333.006 76.215 332.825 76.9646 332.469 77.4994C332.121 78.0251 331.621 78.2857 330.969 78.2857C330.274 78.2857 329.756 78.0114 329.413 77.4629C329.08 76.9143 328.913 76.1784 328.913 75.2505C328.913 74.2997 329.084 73.5592 329.432 73.0198C329.788 72.485 330.302 72.2153 330.969 72.2153C331.621 72.2153 332.121 72.485 332.469 73.0198C332.825 73.5455 333.006 74.2906 333.006 75.2505Z" fill="#FFED00"/>
<path d="M333.462 74.3363C333.462 73.6415 333.638 73.1204 333.999 72.7639C334.37 72.3982 334.879 72.2153 335.536 72.2153C336.078 72.2153 336.522 72.3799 336.87 72.709C337.226 73.0381 337.407 73.4678 337.407 73.9889C337.407 74.3911 337.3 74.734 337.092 75.0128C336.893 75.2825 336.601 75.5248 336.221 75.7442L335.184 76.2927C334.578 76.6218 334.231 77.0012 334.147 77.4263H337.407V78.1211H333.314C333.337 77.5726 333.462 77.1155 333.684 76.7498C333.907 76.375 334.249 76.0504 334.721 75.7807L335.777 75.1591C336.073 75.0037 336.282 74.8391 336.407 74.6654C336.541 74.4963 336.61 74.2586 336.61 73.9523C336.61 73.6506 336.499 73.3992 336.277 73.2027C336.064 72.997 335.782 72.8918 335.425 72.8918C335.018 72.8918 334.712 73.0198 334.518 73.2758C334.319 73.5318 334.221 73.8883 334.221 74.3363H333.462Z" fill="#FFED00"/>
<path d="M338.826 74.6837C339.159 74.4414 339.548 74.318 339.993 74.318C340.52 74.318 340.979 74.4962 341.363 74.8482C341.757 75.2048 341.956 75.6527 341.956 76.2012C341.956 76.8138 341.77 77.312 341.4 77.7005C341.03 78.0936 340.502 78.2856 339.826 78.2856C339.243 78.2856 338.78 78.1439 338.437 77.8651C338.104 77.5863 337.909 77.184 337.863 76.6583H338.622C338.669 76.9783 338.798 77.2206 339.011 77.3897C339.22 77.5634 339.516 77.6457 339.9 77.6457C340.27 77.6457 340.571 77.5268 340.807 77.28C341.039 77.024 341.159 76.6949 341.159 76.2927C341.159 75.9041 341.034 75.5887 340.789 75.3419C340.539 75.0996 340.22 74.9762 339.826 74.9762C339.382 74.9762 339.011 75.1682 338.715 75.543L338.085 75.5064L338.53 72.3616H341.622V73.0747H339.085L338.826 74.6837Z" fill="#FFED00"/>
<path d="M40.6453 27.8695H39.3675V22.9145H37.5342V21.854H42.4971V22.9145H40.6453V27.8695Z" fill="#FFED00"/>
<path d="M47.4942 22.9145H44.2534V24.1761H47.2349V25.2366H44.2534V26.809H47.6423V27.8695H43.0127V21.854H47.4942V22.9145Z" fill="#FFED00"/>
<path d="M52.3136 23.8104C52.1516 23.1156 51.7025 22.7682 50.9618 22.7682C50.5035 22.7682 50.1331 22.9602 49.8507 23.335C49.5775 23.7007 49.4433 24.2218 49.4433 24.8892C49.4433 25.5017 49.5729 25.9954 49.8322 26.3702C50.1007 26.7496 50.4803 26.937 50.9618 26.937C51.6886 26.937 52.1377 26.5622 52.3136 25.8034H53.5914C53.5035 26.425 53.2303 26.9553 52.7766 27.3941C52.3183 27.8238 51.7072 28.034 50.9433 28.034C50.0914 28.034 49.4109 27.7598 48.9062 27.2113C48.397 26.6536 48.147 25.8719 48.147 24.8709C48.147 23.9201 48.3923 23.1522 48.8877 22.5671C49.3923 21.982 50.0822 21.6895 50.9618 21.6895C51.7118 21.6895 52.3229 21.8906 52.7951 22.2928C53.2627 22.6951 53.5266 23.2025 53.5914 23.8104H52.3136Z" fill="#FFED00"/>
<path d="M59.2436 21.854V27.8695H57.9658V25.1634H55.5769V27.8695H54.3176V21.854H55.5769V24.1212H57.9658V21.854H59.2436Z" fill="#FFED00"/>
<path d="M67.2355 21.854V27.8695H65.9577V25.1634H63.5688V27.8695H62.3096V21.854H63.5688V24.1212H65.9577V21.854H67.2355Z" fill="#FFED00"/>
<path d="M73.1388 25.7668C73.1388 26.5119 72.9259 27.0787 72.5092 27.4672C72.1018 27.8466 71.4768 28.034 70.6388 28.034C69.8981 28.034 69.3055 27.8512 68.861 27.4855C68.4259 27.1107 68.2129 26.553 68.2129 25.8217V21.854H69.5277V25.7485C69.5277 26.1508 69.6249 26.457 69.824 26.6627C70.0184 26.8593 70.3055 26.9553 70.6759 26.9553C71.0462 26.9553 71.3286 26.8638 71.5277 26.681C71.736 26.489 71.8425 26.1965 71.8425 25.8034V21.854H73.1388V25.7668Z" fill="#FFED00"/>
<path d="M75.3631 24.1944H76.8446C77.1409 24.1944 77.3631 24.1395 77.5112 24.0298C77.6686 23.911 77.752 23.7464 77.752 23.5361C77.752 23.3167 77.6779 23.1522 77.5298 23.0425C77.3909 22.9328 77.1594 22.8779 76.8261 22.8779H75.3631V24.1944ZM75.3631 26.8273H76.9186C77.2242 26.8273 77.4649 26.7633 77.6409 26.6262C77.8122 26.4799 77.9001 26.2559 77.9001 25.9496C77.9001 25.7302 77.8122 25.5565 77.6409 25.4194C77.4788 25.2868 77.2566 25.2183 76.9742 25.2183H75.3631V26.8273ZM74.1409 21.854H77.1038C77.7057 21.854 78.1686 22.0003 78.4927 22.2928C78.8122 22.5762 78.9742 22.9419 78.9742 23.3899C78.9742 24.0024 78.7242 24.4092 78.2335 24.6149C78.8631 24.8617 79.1779 25.3463 79.1779 26.0776C79.1779 26.3245 79.127 26.553 79.0298 26.7724C78.9418 26.9827 78.7983 27.1838 78.6038 27.3758C78.4048 27.5586 78.1686 27.6866 77.9001 27.7598C77.627 27.8329 77.2335 27.8695 76.7149 27.8695H74.1409V21.854Z" fill="#FFED00"/>
</svg>
